{
  "accessors": [
    {
      "bufferView": 2,
      "componentType": 5126,
      "count": 6348,
      "max": [
        0.15366500616073608,
        0.6082090139389038,
        1.4276460409164429
      ],
      "min": [
        -0.1535950005054474,
        0.42023101449012756,
        1.1744290590286255
      ],
      "type": "VEC3"
    },
    {
      "bufferView": 2,
      "byteOffset": 76176,
      "componentType": 5126,
      "count": 6348,
      "max": [
        0.9962326884269714,
        0.9878617525100708,
        0.9962876439094543
      ],
      "min": [
        -0.9962410926818848,
        -0.9990289807319641,
        -0.9976578950881958
      ],
      "type": "VEC3"
    },
    {
      "bufferView": 1,
      "componentType": 5126,
      "count": 6348,
      "max": [
        0.0,
        0.0
      ],
      "min": [
        0.0,
        0.0
      ],
      "type": "VEC2"
    },
    {
      "bufferView": 0,
      "componentType": 5125,
      "count": 9468,
      "type": "SCALAR"
    },
    {
      "bufferView": 2,
      "byteOffset": 152352,
      "componentType": 5126,
      "count": 3712,
      "max": [
        0.15380699932575226,
        0.7971609830856323,
        1.5653059482574463
      ],
      "min": [
        -0.15373699367046356,
        0.4202379882335663,
        1.1744290590286255
      ],
      "type": "VEC3"
    },
    {
      "bufferView": 2,
      "byteOffset": 196896,
      "componentType": 5126,
      "count": 3712,
      "max": [
        1.0,
        0.9998875856399536,
        0.999985933303833
      ],
      "min": [
        -1.0,
        -0.9982460737228394,
        -0.9998605251312256
      ],
      "type": "VEC3"
    },
    {
      "bufferView": 1,
      "byteOffset": 50784,
      "componentType": 5126,
      "count": 3712,
      "max": [
        0.0,
        0.0
      ],
      "min": [
        0.0,
        0.0
      ],
      "type": "VEC2"
    },
    {
      "bufferView": 0,
      "byteOffset": 37872,
      "componentType": 5125,
      "count": 21888,
      "type": "SCALAR"
    },
    {
      "bufferView": 2,
      "byteOffset": 241440,
      "componentType": 5126,
      "count": 325,
      "max": [
        0.21055899560451508,
        0.21146200597286224,
        0.5239499807357788
      ],
      "min": [
        -0.21061499416828156,
        -0.21142099797725677,
        0.03176400065422058
      ],
      "type": "VEC3"
    },
    {
      "bufferView": 2,
      "byteOffset": 245340,
      "componentType": 5126,
      "count": 325,
      "max": [
        0.9999336004257202,
        0.9999418258666992,
        0.00600019795820117
      ],
      "min": [
        -0.9999330043792725,
        -0.9999427795410156,
        0.004299750551581383
      ],
      "type": "VEC3"
    },
    {
      "bufferView": 1,
      "byteOffset": 80480,
      "componentType": 5126,
      "count": 325,
      "max": [
        0.9791690111160278,
        0.6981719732284546
      ],
      "min": [
        0.020831000059843063,
        0.3427000045776367
      ],
      "type": "VEC2"
    },
    {
      "bufferView": 0,
      "byteOffset": 125424,
      "componentType": 5125,
      "count": 1536,
      "type": "SCALAR"
    },
    {
      "bufferView": 2,
      "byteOffset": 249240,
      "componentType": 5126,
      "count": 8834,
      "max": [
        0.13382799923419952,
        0.9724810123443604,
        1.6612030267715454
      ],
      "min": [
        -0.133759006857872,
        0.030324000865221024,
        0.9396269917488098
      ],
      "type": "VEC3"
    },
    {
      "bufferView": 2,
      "byteOffset": 355248,
      "componentType": 5126,
      "count": 8834,
      "max": [
        1.0,
        0.9985354542732239,
        0.9999655485153198
      ],
      "min": [
        -1.0,
        -0.9996948838233948,
        -0.9978917837142944
      ],
      "type": "VEC3"
    },
    {
      "bufferView": 1,
      "byteOffset": 83080,
      "componentType": 5126,
      "count": 8834,
      "max": [
        0.0,
        0.0
      ],
      "min": [
        0.0,
        0.0
      ],
      "type": "VEC2"
    },
    {
      "bufferView": 0,
      "byteOffset": 131568,
      "componentType": 5125,
      "count": 52704,
      "type": "SCALAR"
    },
    {
      "bufferView": 2,
      "byteOffset": 461256,
      "componentType": 5126,
      "count": 25437,
      "max": [
        0.20912599563598633,
        0.20919400453567505,
        0.7876080274581909
      ],
      "min": [
        -0.209089994430542,
        -0.2091439962387085,
        0.004263999871909618
      ],
      "type": "VEC3"
    },
    {
      "bufferView": 2,
      "byteOffset": 766500,
      "componentType": 5126,
      "count": 25437,
      "max": [
        1.0,
        1.0,
        1.0
      ],
      "min": [
        -1.0,
        -1.0,
        -1.0
      ],
      "type": "VEC3"
    },
    {
      "bufferView": 1,
      "byteOffset": 153752,
      "componentType": 5126,
      "count": 25437,
      "max": [
        0.9948199987411499,
        0.9922040104866028
      ],
      "min": [
        0.0,
        0.0
      ],
      "type": "VEC2"
    },
    {
      "bufferView": 0,
      "byteOffset": 342384,
      "componentType": 5125,
      "count": 140040,
      "type": "SCALAR"
    },
    {
      "bufferView": 2,
      "byteOffset": 1071744,
      "componentType": 5126,
      "count": 2794,
      "max": [
        0.1936749964952469,
        0.19377100467681885,
        0.5559430122375488
      ],
      "min": [
        -0.19363799691200256,
        -0.19372199475765228,
        0.03426000103354454
      ],
      "type": "VEC3"
    },
    {
      "bufferView": 2,
      "byteOffset": 1105272,
      "componentType": 5126,
      "count": 2794,
      "max": [
        0.9999814033508301,
        0.9999916553497314,
        1.0
      ],
      "min": [
        -0.9999808073043823,
        -0.9999916553497314,
        -1.0
      ],
      "type": "VEC3"
    },
    {
      "bufferView": 1,
      "byteOffset": 357248,
      "componentType": 5126,
      "count": 2794,
      "max": [
        0.9948019981384277,
        0.9720659852027893
      ],
      "min": [
        0.12701399624347687,
        0.05801200121641159
      ],
      "type": "VEC2"
    },
    {
      "bufferView": 0,
      "byteOffset": 902544,
      "componentType": 5125,
      "count": 14976,
      "type": "SCALAR"
    }
  ],
  "asset": {
    "extras": {
      "author": "NeeravRajput (https://sketchfab.com/NeeravRajput)",
      "license": "SKETCHFAB Standard (https://sketchfab.com/licenses)",
      "source": "https://sketchfab.com/3d-models/cosmetic-serum-bottle-6540be5601a544179f0f4848f5c9cb3b",
      "title": "Cosmetic serum bottle"
    },
    "generator": "Sketchfab-16.16.0",
    "version": "2.0"
  },
  "bufferViews": [
    {
      "buffer": 0,
      "byteLength": 962448,
      "name": "floatBufferViews",
      "target": 34963
    },
    {
      "buffer": 0,
      "byteLength": 379600,
      "byteOffset": 962448,
      "byteStride": 8,
      "name": "floatBufferViews",
      "target": 34962
    },
    {
      "buffer": 0,
      "byteLength": 1138800,
      "byteOffset": 1342048,
      "byteStride": 12,
      "name": "floatBufferViews",
      "target": 34962
    }
  ],
  "buffers": [
    {
      "byteLength": 2480848,
      "uri": "scene.bin"
    }
  ],
  "materials": [
    {
      "doubleSided": true,
      "name": "chrome",
      "pbrMetallicRoughness": {
        "metallicFactor": 0.0,
        "roughnessFactor": 0.6
      }
    },
    {
      "doubleSided": true,
      "name": "label",
      "pbrMetallicRoughness": {
        "metallicFactor": 0.0,
        "roughnessFactor": 0.6
      }
    },
    {
      "doubleSided": true,
      "name": "rubber",
      "pbrMetallicRoughness": {
        "metallicFactor": 0.0,
        "roughnessFactor": 0.6
      }
    },
    {
      "doubleSided": true,
      "name": "water",
      "pbrMetallicRoughness": {
        "metallicFactor": 0.0,
        "roughnessFactor": 0.6
      }
    }
  ],
  "meshes": [
    {
      "name": "Object_0",
      "primitives": [
        {
          "attributes": {
            "NORMAL": 1,
            "POSITION": 0,
            "TEXCOORD_0": 2
          },
          "indices": 3,
          "material": 0,
          "mode": 4
        }
      ]
    },
    {
      "name": "Object_1",
      "primitives": [
        {
          "attributes": {
            "NORMAL": 5,
            "POSITION": 4,
            "TEXCOORD_0": 6
          },
          "indices": 7,
          "material": 0,
          "mode": 4
        }
      ]
    },
    {
      "name": "Object_2",
      "primitives": [
        {
          "attributes": {
            "NORMAL": 9,
            "POSITION": 8,
            "TEXCOORD_0": 10
          },
          "indices": 11,
          "material": 1,
          "mode": 4
        }
      ]
    },
    {
      "name": "Object_3",
      "primitives": [
        {
          "attributes": {
            "NORMAL": 13,
            "POSITION": 12,
            "TEXCOORD_0": 14
          },
          "indices": 15,
          "material": 2,
          "mode": 4
        }
      ]
    },
    {
      "name": "Object_4",
      "primitives": [
        {
          "attributes": {
            "NORMAL": 17,
            "POSITION": 16,
            "TEXCOORD_0": 18
          },
          "indices": 19,
          "material": 3,
          "mode": 4
        }
      ]
    },
    {
      "name": "Object_5",
      "primitives": [
        {
          "attributes": {
            "NORMAL": 21,
            "POSITION": 20,
            "TEXCOORD_0": 22
          },
          "indices": 23,
          "material": 3,
          "mode": 4
        }
      ]
    }
  ],
  "nodes": [
    {
      "children": [
        1
      ],
      "matrix": [
        1.0,
        0.0,
        0.0,
        0.0,
        0.0,
        2.220446049250313e-16,
        -1.0,
        0.0,
        0.0,
        1.0,
        2.220446049250313e-16,
        0.0,
        0.0,
        0.0,
        0.0,
        1.0
      ],
      "name": "Sketchfab_model"
    },
    {
      "children": [
        2,
        3,
        4,
        5,
        6,
        7
      ],
      "name": "serum bottle.obj.cleaner.materialmerger.gles"
    },
    {
      "mesh": 0,
      "name": "Object_2"
    },
    {
      "mesh": 1,
      "name": "Object_3"
    },
    {
      "mesh": 2,
      "name": "Object_4"
    },
    {
      "mesh": 3,
      "name": "Object_5"
    },
    {
      "mesh": 4,
      "name": "Object_6"
    },
    {
      "mesh": 5,
      "name": "Object_7"
    }
  ],
  "scene": 0,
  "scenes": [
    {
      "name": "Sketchfab_Scene",
      "nodes": [
        0
      ]
    }
  ]
}
